<svg version="1.1" xmlns="http://www.w3.org/2000/svg" viewBox="0 0 1927.6697979013356 1605.833333333334" width="5783.009393704007" height="4817.500000000002" filter="invert(93%) hue-rotate(180deg)">
  <!-- svg-source:excalidraw -->
  
  <defs>
    <style class="style-fonts">
      @font-face {
        font-family: "Virgil";
        src: url("https://excalidraw.com/Virgil.woff2");
      }
      @font-face {
        font-family: "Cascadia";
        src: url("https://excalidraw.com/Cascadia.woff2");
      }
    </style>
    
  </defs>
  <g stroke-opacity="0.8" fill-opacity="0.8" stroke-linecap="round" transform="translate(102.66979790133553 687.333333333333) rotate(0 211.60156249999966 115.16666666666652)"><path d="M32 0 M32 0 C156.08 -0.93, 282.84 -1.81, 391.2 0 M32 0 C164.13 -1.72, 296.23 -1.63, 391.2 0 M391.2 0 C412.52 1.25, 421.79 10.11, 423.2 32 M391.2 0 C410.35 -1.17, 423.76 12.77, 423.2 32 M423.2 32 C423.87 67.24, 426.38 103.49, 423.2 198.33 M423.2 32 C424.24 81.69, 423.43 130.09, 423.2 198.33 M423.2 198.33 C422.93 218.8, 413.1 228.72, 391.2 230.33 M423.2 198.33 C423 219.16, 414.24 231.2, 391.2 230.33 M391.2 230.33 C303.72 227.62, 218.35 229.2, 32 230.33 M391.2 230.33 C278.52 229.26, 165.79 229.9, 32 230.33 M32 230.33 C12.2 231.79, -1.49 220.49, 0 198.33 M32 230.33 C8.64 232.51, -0.42 219.7, 0 198.33 M0 198.33 C-0.52 136.47, -1.45 75.12, 0 32 M0 198.33 C1.15 136.34, 1.57 75.87, 0 32 M0 32 C-0.83 10.86, 12.29 -0.04, 32 0 M0 32 C-0.42 11.59, 10.57 0.54, 32 0" stroke="#e03131" stroke-width="1" fill="none"></path></g><g stroke-opacity="0.8" fill-opacity="0.8" transform="translate(163.85208956800216 694.53125) rotate(0 115.93644813696528 14.995659722222172)"><text x="0" y="0" font-family="Virgil, Segoe UI Emoji" font-size="23.99305555555552px" fill="#e03131" text-anchor="start" style="white-space: pre;" direction="ltr" dominant-baseline="text-before-edge">Reputation Proof A</text></g><g stroke-opacity="0.8" fill-opacity="0.8" transform="translate(125.46320067911324 757.8836438180379) rotate(0 187.49573816193453 36.33338843961019)"><text x="0" y="0" font-family="Virgil, Segoe UI Emoji" font-size="19.377807167791996px" fill="#e03131" text-anchor="start" style="white-space: pre;" direction="ltr" dominant-baseline="text-before-edge">token_id = reputation-proof-434n23jhj</text><text x="0" y="24.222258959739996" font-family="Virgil, Segoe UI Emoji" font-size="19.377807167791996px" fill="#e03131" text-anchor="start" style="white-space: pre;" direction="ltr" dominant-baseline="text-before-edge">initial_token_amount = 100</text><text x="0" y="48.44451791947999" font-family="Virgil, Segoe UI Emoji" font-size="19.377807167791996px" fill="#e03131" text-anchor="start" style="white-space: pre;" direction="ltr" dominant-baseline="text-before-edge">    - unspend_amount = 50 / 100</text></g><g stroke-opacity="0.8" fill-opacity="0.8" stroke-linecap="round" transform="translate(816.6697979013355 647.166666666667) rotate(0 215.5 106.03058510638311)"><path d="M32 0 M32 0 C104.41 2.04, 178.62 0.61, 399 0 M32 0 C140.71 -0.95, 248.47 -0.79, 399 0 M399 0 C419.35 0.31, 431.34 11.01, 431 32 M399 0 C422.17 -1.53, 431.35 9.16, 431 32 M431 32 C433.55 67.2, 433.05 99.78, 431 180.06 M431 32 C432.16 77.62, 432.4 123.7, 431 180.06 M431 180.06 C429.34 201.47, 421.34 212.8, 399 212.06 M431 180.06 C429.02 199.18, 420.02 213.95, 399 212.06 M399 212.06 C321.61 214.29, 247.28 214.89, 32 212.06 M399 212.06 C299.21 214.06, 198.87 214.08, 32 212.06 M32 212.06 C11.69 213.29, 1.97 200.9, 0 180.06 M32 212.06 C11.88 209.83, 0.88 203.35, 0 180.06 M0 180.06 C1.1 124.79, -1.65 68.4, 0 32 M0 180.06 C0.01 136.81, -0.21 92.24, 0 32 M0 32 C0.5 9.7, 8.8 -0.84, 32 0 M0 32 C-0.11 11.52, 8.46 1.13, 32 0" stroke="#e03131" stroke-width="1" fill="none"></path></g><g stroke-opacity="0.8" fill-opacity="0.8" transform="translate(876.2761808800589 654.0443262411354) rotate(0 111.59002484666541 14.328457446808443)"><text x="0" y="0" font-family="Virgil, Segoe UI Emoji" font-size="22.925531914893615px" fill="#e03131" text-anchor="start" style="white-space: pre;" direction="ltr" dominant-baseline="text-before-edge">Reputation Proof B</text></g><g stroke-opacity="0.8" fill-opacity="0.8" transform="translate(841.8878830077184 715.7242569601476) rotate(0 179.15348544019332 34.716806049141724)"><text x="0" y="0" font-family="Virgil, Segoe UI Emoji" font-size="18.515629892875637px" fill="#e03131" text-anchor="start" style="white-space: pre;" direction="ltr" dominant-baseline="text-before-edge">token_id = reputation-proof-434n23jhj</text><text x="0" y="23.144537366094546" font-family="Virgil, Segoe UI Emoji" font-size="18.515629892875637px" fill="#e03131" text-anchor="start" style="white-space: pre;" direction="ltr" dominant-baseline="text-before-edge">initial_token_amount = 30</text><text x="0" y="46.28907473218909" font-family="Virgil, Segoe UI Emoji" font-size="18.515629892875637px" fill="#e03131" text-anchor="start" style="white-space: pre;" direction="ltr" dominant-baseline="text-before-edge">    - unspend_amount = 25 / 30</text></g><g mask="url(#mask--YVibVPUgoMsu82PKV7PP)" stroke-linecap="round"><g stroke-opacity="0.8" fill-opacity="0.8" transform="translate(542.8729229013348 798.8610637775964) rotate(0 126.5560857302529 -43.875723778424344)"><path d="M-0.2 -1.05 C28.02 -15.33, 127.06 -72.85, 169.57 -85.03 C212.09 -97.2, 240.65 -75.96, 254.88 -74.08 M-1.77 1.02 C26.37 -13.22, 126.58 -71.78, 169.21 -84.1 C211.83 -96.42, 239.67 -74.82, 253.99 -72.9" stroke="#e03131" stroke-width="1" fill="none"></path></g><g stroke-opacity="0.8" fill-opacity="0.8" transform="translate(542.8729229013348 798.8610637775964) rotate(0 126.5560857302529 -43.875723778424344)"><path d="M222.25 -70.34 C231.68 -72.78, 242.83 -72.88, 254.1 -73.69 M223.06 -71.98 C235.67 -73.01, 247.31 -72.72, 253.35 -73.15" stroke="#e03131" stroke-width="1" fill="none"></path></g><g stroke-opacity="0.8" fill-opacity="0.8" transform="translate(542.8729229013348 798.8610637775964) rotate(0 126.5560857302529 -43.875723778424344)"><path d="M228.81 -89.79 C236.25 -85.99, 245.29 -79.85, 254.1 -73.69 M229.62 -91.43 C239.89 -85.21, 249.09 -77.69, 253.35 -73.15" stroke="#e03131" stroke-width="1" fill="none"></path></g></g><mask id="mask--YVibVPUgoMsu82PKV7PP"><rect x="0" y="0" fill="#fff" width="898.003131234669" height="982.722127555192"></rect><rect x="697.3364645680024" y="702.5000000000009" fill="#000" width="28" height="25" opacity="1"></rect></mask><g stroke-opacity="0.8" fill-opacity="0.8" transform="translate(697.3364645680026 702.5000000000009) rotate(0 -27.90745593641475 52.485339999171174)"><text x="14" y="0" font-family="Virgil, Segoe UI Emoji" font-size="20px" fill="#e03131" text-anchor="middle" style="white-space: pre;" direction="ltr" dominant-baseline="text-before-edge">20</text></g><g stroke-opacity="0.6" fill-opacity="0.6" transform="translate(480.7189829682786 272.3071881316355) rotate(0 93.98333231608086 25.712564242756343)"><text x="0" y="0" font-family="Virgil, Segoe UI Emoji" font-size="20.570051394205112px" fill="#1e1e1e" text-anchor="start" style="white-space: pre;" direction="ltr" dominant-baseline="text-before-edge">without a </text><text x="0" y="25.71256424275639" font-family="Virgil, Segoe UI Emoji" font-size="20.570051394205112px" fill="#1e1e1e" text-anchor="start" style="white-space: pre;" direction="ltr" dominant-baseline="text-before-edge">reputation pointer.</text></g><g stroke-opacity="0.6" fill-opacity="0.6" transform="translate(480.4516331222851 406.77111449222866) rotate(0 110.24362324636223 25.201131997401717)"><text x="0" y="0" font-family="Virgil, Segoe UI Emoji" font-size="20.160905597921488px" fill="#1e1e1e" text-anchor="start" style="white-space: pre;" direction="ltr" dominant-baseline="text-before-edge">the script allow to </text><text x="0" y="25.20113199740186" font-family="Virgil, Segoe UI Emoji" font-size="20.160905597921488px" fill="#1e1e1e" text-anchor="start" style="white-space: pre;" direction="ltr" dominant-baseline="text-before-edge">send his token amount</text></g><g stroke-linecap="round"><g stroke-opacity="0.6" fill-opacity="0.6" transform="translate(571.2853033072912 339.6806260121148) rotate(0 -1.9858347281451643 23.094503881540277)"><path d="M0 0 C-0.02 2.73, 0.57 8.65, -0.13 16.35 C-0.83 24.05, -3.51 41.22, -4.18 46.19 M0 0 C-0.02 2.73, 0.57 8.65, -0.13 16.35 C-0.83 24.05, -3.51 41.22, -4.18 46.19" stroke="#1e1e1e" stroke-width="1" fill="none"></path></g><g stroke-opacity="0.6" fill-opacity="0.6" transform="translate(571.2853033072912 339.6806260121148) rotate(0 -1.9858347281451643 23.094503881540277)"><path d="M-7.25 31.45 C-6.54 34.87, -5.82 38.3, -4.18 46.19 M-7.25 31.45 C-6.44 35.35, -5.63 39.26, -4.18 46.19" stroke="#1e1e1e" stroke-width="1" fill="none"></path></g><g stroke-opacity="0.6" fill-opacity="0.6" transform="translate(571.2853033072912 339.6806260121148) rotate(0 -1.9858347281451643 23.094503881540277)"><path d="M2.94 32.93 C1.29 36.01, -0.37 39.09, -4.18 46.19 M2.94 32.93 C1.06 36.44, -0.83 39.95, -4.18 46.19" stroke="#1e1e1e" stroke-width="1" fill="none"></path></g></g><mask></mask><g stroke-opacity="0.6" fill-opacity="0.6" stroke-linecap="round" transform="translate(414.6697979013355 210.66666666666515) rotate(0 158.83333333333337 158.83333333333348)"><path d="M50.31 42.41 C50.31 42.41, 50.31 42.41, 50.31 42.41 M50.31 42.41 C50.31 42.41, 50.31 42.41, 50.31 42.41 M22.1 83.16 C34.51 66.21, 52.73 49.97, 61.86 35.2 M20.3 81.31 C37.14 61.99, 54.04 43.15, 62.55 33.6 M16.62 91.97 C29.71 76.36, 44.74 59.49, 74.59 24.51 M17.87 92.35 C36.18 69.7, 55.57 48.36, 74.59 26.2 M11.84 103.89 C39.09 70.45, 69.18 38.28, 89.67 18.36 M12.11 104.31 C31.61 80.52, 51.37 58.58, 87.65 17.83 M10.95 113.81 C30.26 89.4, 53.79 64.77, 89.95 18.57 M9.3 114.23 C27.18 92.63, 45.55 72.37, 92.1 19.14 M3.42 126.06 C39.4 84.75, 73.65 43.42, 99.87 15.09 M6.04 125.9 C41.27 85.31, 77.54 43.64, 98.33 16.81 M6.24 130.04 C28.65 100.7, 55.02 73.8, 106.82 13.2 M5.44 131.53 C41.44 91.45, 75.88 50.95, 107.14 14.76 M2.21 138.1 C44.99 89.51, 85.82 45.58, 114.15 10.98 M4.33 137.74 C39.82 98.02, 75.06 56.38, 113.6 11.71 M4.4 144.91 C45.42 97.13, 85.32 49.04, 121.99 9.18 M2.66 144.94 C47.65 92.36, 92.19 41.9, 120.86 9.11 M1.68 153.07 C41.74 109.94, 79.1 65.68, 132.49 3.36 M3.95 151.04 C37.47 113.02, 69.54 74.75, 132.33 1.32 M2.73 158.64 C33.17 124.52, 61.18 93.64, 137.68 0.91 M2.31 157.19 C44.53 111.25, 83.82 64.39, 138.35 0.77 M4.31 164.95 C42.2 120.49, 77.7 76.13, 144.82 0.39 M3.54 164.83 C44.67 114.58, 86.92 65.77, 143.18 1.08 M0.95 172.18 C37.43 129.03, 74.21 86.47, 148.34 2.37 M1.52 172.84 C56.49 108.62, 111.83 43.71, 149.64 2.68 M2.04 178.26 C52.89 115.71, 105.51 56.84, 152.86 2.24 M1.5 177.64 C37.17 138.85, 70.4 99.76, 154.9 2.65 M3.94 182.52 C33.21 145.15, 63.43 109.66, 158.25 3.28 M2.98 181.99 C64.09 112.81, 125.45 42.77, 159.31 2.85 M4.01 185.97 C61 123.25, 116.93 60.83, 164.98 2.32 M4.21 186.82 C61 121.71, 116.84 56.75, 165.28 2.51 M5.79 191.23 C43.78 148.96, 80.51 105.74, 170.04 2.59 M4.91 191.42 C68.07 120.13, 131.95 47.14, 170.67 2.67 M6.78 196.54 C45 150.74, 84.51 105.02, 175.99 3.19 M6.47 195.69 C45.77 152.72, 84.02 109.43, 175.4 2.48 M6.3 202.84 C66.14 133.52, 125.3 62.96, 180.26 1.08 M7.29 200.71 C66.62 132.82, 126.88 66.57, 181.31 2.66 M9.57 204.73 C64.24 140.85, 122.93 73.98, 186.51 4.57 M7.95 206.02 C77.72 126.45, 145.06 48.02, 184.93 3.12 M9.19 210.64 C46.64 167.78, 86.08 122.11, 189.97 4.1 M9.08 212.58 C63.57 148.48, 118.43 85.62, 189.08 3.99 M10.96 218.1 C65.9 152.61, 121.25 88.74, 192.98 6.42 M9.62 217.12 C76.67 140.49, 143.01 64.23, 193.75 5.06 M13.48 220.76 C85.24 138.97, 153.77 58.05, 197.78 5.41 M12.19 220.43 C58.02 169.15, 103.23 116.99, 197.69 6.4 M14.16 222.6 C86.56 140.26, 157.25 58.42, 200.87 8.05 M14.3 223.1 C68.29 162.68, 122.04 101.85, 201.14 8.16 M16.6 228.31 C56.29 178.21, 97.42 132.39, 205.87 10.38 M16.46 226.94 C92.89 139.27, 167.19 53.9, 205.5 9.51 M17.45 231.02 C86.46 154.36, 155.33 74.17, 211.48 11.75 M18.92 231.66 C73.15 169.86, 126.19 108.03, 209.76 10.73 M22.16 233.95 C87.46 159.03, 152.53 82.76, 215.2 12.24 M21.52 233.93 C83.11 163.21, 145.62 91.91, 214.78 12.18 M24.18 237.2 C93.51 160.83, 160 83.53, 219.69 13.83 M23.03 238.36 C75.86 178.18, 128.65 117.63, 218.42 12.6 M26.43 241.32 C73.38 187.23, 123.51 130.89, 224.74 14.9 M25.44 241.61 C76.77 180.4, 128.8 120.58, 223.23 14.04 M26.88 245.51 C75.17 190.12, 125.49 135.42, 227.83 14.52 M27.61 244.07 C99.18 159.63, 172.63 76.19, 227.06 15.78 M30.53 248.9 C85.66 185.59, 139.5 122.25, 229.89 16.38 M29.3 248.08 C102.84 164.95, 176.97 80.41, 231.26 18.4 M32.74 250.85 C90.31 186.39, 145.19 122.46, 233.73 20.58 M32.51 252.52 C90.06 184.73, 149.34 116.05, 233.83 20.06 M33.72 255.9 C76.18 205.78, 119.04 158.64, 236.69 23.36 M34.91 254.98 C88.03 192.63, 141.95 130.5, 237.28 21.91 M36.28 259.69 C89.68 199.34, 140.54 140.44, 241.5 25.62 M37.04 259.31 C111.41 174.26, 185.37 88.36, 239.96 25.14 M40.44 261.7 C98.16 193.69, 160.21 123.89, 245.25 27.38 M38.94 262.51 C103.36 188.98, 165.08 117.83, 244.38 26.96 M42.24 264.9 C105.63 190.23, 169.24 116.87, 246.67 28.49 M42.5 264.47 C104.12 194.98, 163.39 126, 246.48 30 M44.18 267.03 C92.65 215.82, 141.58 161, 252.22 31.63 M45.41 267.91 C111.08 191.83, 174.67 118.37, 251.09 30.96 M49.55 270.18 C120.72 186.59, 190.58 104.57, 254.79 34.51 M49.1 269.42 C127.43 179.26, 204.95 90.14, 254.07 34.36 M50.79 274.26 C124.36 188.05, 200.92 103.71, 256.36 36.47 M50.45 272.89 C94.91 222.73, 141.2 169.57, 257.09 36.3 M52.97 277.18 C99.54 225.71, 143.38 175.8, 261.33 38.33 M53.28 275.6 C123.57 195.8, 192.48 117.44, 260.22 38.61 M56.57 279.92 C118.17 207.9, 181.03 137.17, 264.09 42.2 M57.41 278.91 C109.81 216.49, 163.61 155.72, 262.98 40.26 M61.17 281.05 C123.46 205.55, 189.53 131.59, 266.04 43.89 M60.18 281.47 C110.94 221.55, 164.16 162.58, 267.77 42.44 M62.88 283.6 C123.41 215.24, 184.74 144.46, 270.58 45.77 M63.06 283.29 C133.34 200.87, 204.57 118.12, 269.94 45.95 M66 287.78 C108.93 236.65, 152.89 187.78, 271.53 48.9 M65.57 287.02 C114.68 232.58, 163.06 176.92, 272.27 49.09 M69.63 291.25 C119.96 228.68, 173 170.51, 275.15 53.31 M68.11 289.7 C132.94 216.44, 197.58 141.6, 275.19 52.13 M70.37 291.2 C115.37 241.28, 160.44 191.14, 278.74 54.46 M71.09 292.06 C148.79 205.02, 225.29 116.32, 278.63 55.28 M75.07 295.26 C147.1 212.93, 216.35 131.4, 280.54 58.21 M75.57 293.8 C131.73 232.21, 184.9 168.68, 279.81 58.16 M79.34 296.55 C155.47 208.12, 233.33 116.11, 282.38 61.84 M78.05 295.7 C153.17 213.1, 226.74 127.8, 282.35 62.06 M82.49 296.67 C161.74 208.7, 238.68 119.7, 285.97 65.27 M83.28 297.06 C129.2 244.8, 174.96 191.34, 286 64.18 M88.13 298.56 C156.69 219.99, 224.09 142.52, 288.98 68 M86.9 300 C145.41 232.58, 202.69 165.64, 287.69 67.49 M88.95 302.45 C137.92 246.75, 183.98 196.24, 290.6 70.09 M91.08 301.06 C151.07 229.07, 212.92 157.86, 290.68 70.27 M93.98 303.47 C143.98 249.72, 192.23 193.62, 293.08 72.86 M93.46 303.41 C144.38 247.13, 191.43 191.94, 293.78 74.02 M99.06 305.09 C140.01 253.65, 183.61 206.86, 295.76 76.95 M98.86 304.28 C162.16 232.09, 224.3 159.56, 296.19 77.27 M102.57 305.18 C146.05 254.35, 190.96 200.08, 299.91 79.26 M102.35 305.66 C160.07 237.52, 218.31 168.9, 298.59 79.74 M104.58 306.51 C165.12 239.55, 224.36 171.76, 301.21 85.11 M106.47 307.46 C177.53 226.47, 246.68 146.73, 300.82 83.01 M108.18 308.59 C178.16 225.94, 251.28 143.84, 302.55 87.28 M110.14 309.49 C174.85 233.07, 240.05 157.17, 302.13 88.59 M112.98 309.44 C175.74 239.5, 242.37 165.25, 304.62 92.4 M113.06 310.51 C158.16 258.84, 202.16 206.86, 304.16 91.96 M117.09 311.34 C173.61 245.84, 231.96 181.7, 305.2 96.2 M118.52 312.43 C164.61 258.63, 210.43 206.34, 305.09 96.3 M123.78 312.3 C195.4 231.26, 265.82 148, 305.53 99.55 M122.75 311.86 C170.98 259.28, 216.44 207.59, 306.7 100.42 M127.11 313.31 C201.22 231.91, 270.45 147.49, 308.02 106.14 M126.91 313.44 C179.79 254.87, 230.75 195.91, 308.17 105.28 M132.19 314.25 C203.18 231.91, 271.43 152.09, 310.23 109.01 M132.24 315.23 C203.3 234.54, 273.3 154.05, 309.98 109.9 M135.84 313.62 C202.23 235.49, 271.95 156.3, 311.57 112.6 M136.71 314.46 C192.94 249.75, 248.5 184.7, 312.19 113.43 M141.2 317.58 C196.64 247.81, 255.89 180.98, 313.83 118.71 M141.05 316.66 C204.66 243.6, 267.3 172.22, 314.02 118.04 M144.57 316.16 C212 244.48, 274.71 170.92, 315.94 120.4 M145.79 316.76 C186.04 270.77, 224.84 225.05, 315.61 121.64 M150.28 318.32 C197.25 266.79, 238.74 215.59, 318.21 124.82 M151.05 318.31 C209.67 251.61, 266.4 186.07, 316.74 126.31 M154 318.55 C188 281.71, 220.19 242.19, 318.94 133 M154.88 319.17 C200.74 265.44, 244.61 215.12, 317.38 130.75 M161.21 318.84 C202 271.23, 245.66 222.31, 319.43 138.73 M159.65 319.17 C195.96 275.72, 233.3 234.4, 317 137.66 M165.45 316.2 C204.12 275.4, 242.07 231.06, 317.88 143.41 M165.85 317.43 C215.49 262.27, 262.93 207.99, 317.41 142.47 M170.6 315.43 C212.27 268.62, 254.55 219.35, 318.59 148.72 M171.97 316.89 C230.68 249.75, 289.87 183.06, 317.8 148.93 M178.26 316.58 C219.78 271.72, 258.48 223.23, 319.69 153.65 M177.38 316.76 C233.88 251.82, 290.31 186.45, 318.25 154.61 M182.91 313.66 C229.01 262.12, 274.41 210.49, 320.97 158.39 M183.96 314.93 C227.52 263.26, 273.7 211.81, 320.08 159.95 M190.15 313.9 C238.4 257.58, 288.51 200.55, 317.19 165.76 M190.69 313.13 C240.37 258.08, 290.65 198.69, 318.31 166.23 M196.02 314.3 C229.11 278.16, 258.56 243.91, 321.01 171.69 M196.35 313.29 C223.27 283.43, 247.26 254.69, 319.14 171.24 M201.61 312.77 C230.03 282.92, 255.93 249.78, 315.98 179.36 M203.2 312.44 C241.79 265.84, 279.71 222.12, 317.63 178.8 M209.36 312.01 C245.19 268.76, 283.25 224.42, 317.55 186.77 M207.43 313.78 C241.37 272.73, 273.23 234.44, 316.01 187.54 M215.35 307.07 C237.41 285.5, 257.48 260.8, 315.4 195.52 M216.55 308.63 C243.74 273.77, 271.7 242.61, 314.84 195.91 M225.09 302.92 C258.49 263.4, 291.64 227.18, 311.43 206.11 M226.1 303.91 C259.21 263.65, 293.31 225.28, 311.96 203.6 M236.56 298.67 C254.93 274.22, 276.57 249.76, 305.93 214.92 M235.62 298.52 C258.16 275.43, 278.72 251.89, 307.52 216.53 M244.4 294.27 C263.27 271.18, 286.15 247.23, 297.47 235.24 M245.78 294.06 C261.42 273.17, 279.67 254.83, 296.92 233.96" stroke="#ffc9c9" stroke-width="0.5" fill="none"></path><path d="M88.27 17.2 C100.2 8.11, 117.73 3.7, 133.09 1.18 C148.45 -1.33, 164.93 -0.08, 180.41 2.13 C195.88 4.34, 211.65 7.8, 225.95 14.46 C240.25 21.12, 254.41 31.57, 266.2 42.08 C277.98 52.59, 288.67 64, 296.66 77.53 C304.65 91.07, 310.76 108.03, 314.13 123.28 C317.5 138.54, 318.12 153.73, 316.88 169.07 C315.63 184.41, 312.35 200.73, 306.68 215.3 C301.01 229.87, 292.28 244.26, 282.84 256.5 C273.39 268.74, 262.82 279.65, 250.01 288.74 C237.19 297.82, 221.08 306.04, 205.95 311.01 C190.82 315.98, 174.76 318.71, 159.22 318.55 C143.68 318.4, 127.71 314.7, 112.74 310.1 C97.77 305.49, 82.25 299.62, 69.38 290.95 C56.51 282.27, 45.32 270.05, 35.54 258.02 C25.76 245.99, 16.44 233.11, 10.72 218.75 C5 204.4, 2.36 187.64, 1.21 171.89 C0.06 156.13, 0.74 139.32, 3.82 124.23 C6.91 109.13, 11.96 95, 19.74 81.33 C27.52 67.66, 36.74 54.12, 50.49 42.21 C64.23 30.31, 90.73 15.37, 102.22 9.9 C113.72 4.43, 118.24 7.04, 119.46 9.4" stroke="#1e1e1e" stroke-width="1.5" fill="none" stroke-dasharray="8 9"></path></g><g stroke-linecap="round"><g stroke-opacity="0.6" fill-opacity="0.6" transform="translate(469.3999939170602 516.4526970969882) rotate(0 -32.135768241150856 75.52082899450033)"><path d="M0.97 -0.78 C-9.74 24.42, -54.48 126.27, -65.24 151.83" stroke="#1e1e1e" stroke-width="1.5" fill="none" stroke-dasharray="8 9"></path></g><g stroke-opacity="0.6" fill-opacity="0.6" transform="translate(469.3999939170602 516.4526970969882) rotate(0 -32.135768241150856 75.52082899450033)"><path d="M-64.8 119.9 C-63.81 129.2, -62.95 133.16, -66.91 153.47" stroke="#1e1e1e" stroke-width="1.5" fill="none"></path></g><g stroke-opacity="0.6" fill-opacity="0.6" transform="translate(469.3999939170602 516.4526970969882) rotate(0 -32.135768241150856 75.52082899450033)"><path d="M-45.96 128.02 C-49.12 135.71, -52.36 137.9, -66.91 153.47" stroke="#1e1e1e" stroke-width="1.5" fill="none"></path></g></g><mask></mask><g stroke-linecap="round"><g stroke-opacity="0.6" fill-opacity="0.6" transform="translate(692.50394315539 508.1928431781125) rotate(0 54.253559407355056 63.867366406838755)"><path d="M1.11 0.72 C19.03 21.8, 89.32 106.14, 107.4 127.02" stroke="#1e1e1e" stroke-width="1.5" fill="none" stroke-dasharray="8 9"></path></g><g stroke-opacity="0.6" fill-opacity="0.6" transform="translate(692.50394315539 508.1928431781125) rotate(0 54.253559407355056 63.867366406838755)"><path d="M82.54 110.48 C89.57 118.23, 95.43 121.43, 106.4 125.27" stroke="#1e1e1e" stroke-width="1.5" fill="none"></path></g><g stroke-opacity="0.6" fill-opacity="0.6" transform="translate(692.50394315539 508.1928431781125) rotate(0 54.253559407355056 63.867366406838755)"><path d="M98.19 97.22 C100.72 108.98, 102.01 116.05, 106.4 125.27" stroke="#1e1e1e" stroke-width="1.5" fill="none"></path></g></g><mask></mask><g stroke-opacity="0.8" fill-opacity="0.8" stroke-linecap="round" transform="translate(1421.6697979013356 814.166666666667) rotate(0 248 98.27659574468089)"><path d="M32 0 M32 0 C136.73 -0.48, 243.53 -1.1, 464 0 M32 0 C182.45 -2.24, 333.47 -2.15, 464 0 M464 0 C484.15 -1.03, 495.91 11.96, 496 32 M464 0 C486.63 0.44, 496.7 8.52, 496 32 M496 32 C493.32 76.8, 494.88 122.25, 496 164.55 M496 32 C496.08 63.65, 495.92 94.87, 496 164.55 M496 164.55 C495.65 187.35, 486.99 198.45, 464 196.55 M496 164.55 C495.62 184.32, 486.63 194.81, 464 196.55 M464 196.55 C324.11 196.03, 183.98 195.98, 32 196.55 M464 196.55 C338.78 198.31, 214.76 198.89, 32 196.55 M32 196.55 C10.64 195.93, 1.9 184.85, 0 164.55 M32 196.55 C8.75 198.7, -1.31 186.92, 0 164.55 M0 164.55 C0.17 134.02, 0.38 102.38, 0 32 M0 164.55 C0.98 126.76, 0.74 89.16, 0 32 M0 32 C0.25 11.02, 12.5 0.12, 32 0 M0 32 C0.71 8.43, 12.11 -2.18, 32 0" stroke="#2f9e44" stroke-width="1" fill="none"></path></g><g stroke-opacity="0.8" fill-opacity="0.8" transform="translate(1490.2655425821868 822.0815602836883) rotate(0 129.12269235164558 16.489361702127553)"><text x="0" y="0" font-family="Virgil, Segoe UI Emoji" font-size="26.382978723404253px" fill="#2f9e44" text-anchor="start" style="white-space: pre;" direction="ltr" dominant-baseline="text-before-edge">Reputation Proof D</text></g><g stroke-opacity="0.8" fill-opacity="0.8" transform="translate(1450.69107449708 893.0635687213453) rotate(0 206.17199252514126 39.95251925840921)"><text x="0" y="0" font-family="Virgil, Segoe UI Emoji" font-size="21.308010271151545px" fill="#2f9e44" text-anchor="start" style="white-space: pre;" direction="ltr" dominant-baseline="text-before-edge">token_id = reputation-proof-434n23jhj</text><text x="0" y="26.63501283893943" font-family="Virgil, Segoe UI Emoji" font-size="21.308010271151545px" fill="#2f9e44" text-anchor="start" style="white-space: pre;" direction="ltr" dominant-baseline="text-before-edge">token_amount = 5</text><text x="0" y="53.27002567787886" font-family="Virgil, Segoe UI Emoji" font-size="21.308010271151545px" fill="#2f9e44" text-anchor="start" style="white-space: pre;" direction="ltr" dominant-baseline="text-before-edge"></text></g><g mask="url(#mask-5K7dKzeIHh5yMN0qyvhTi)" stroke-linecap="round"><g stroke-opacity="0.7" fill-opacity="0.7" transform="translate(1269.6697979013356 777.4154534815689) rotate(0 69.02112021222717 59.23621727413001)"><path d="M-0.46 -0.56 C22.75 19.24, 115.41 98.04, 138.5 117.73 M1.5 1.76 C24.66 21.82, 115.17 99.55, 137.81 119.03" stroke="#e03131" stroke-width="1" fill="none"></path></g><g stroke-opacity="0.7" fill-opacity="0.7" transform="translate(1269.6697979013356 777.4154534815689) rotate(0 69.02112021222717 59.23621727413001)"><path d="M108.82 109.27 C115.55 111.23, 122.01 113.53, 139.04 118.13 M110.04 107.49 C116.69 111.17, 123.03 114.28, 137.08 119.12" stroke="#e03131" stroke-width="1" fill="none"></path></g><g stroke-opacity="0.7" fill-opacity="0.7" transform="translate(1269.6697979013356 777.4154534815689) rotate(0 69.02112021222717 59.23621727413001)"><path d="M122.19 93.71 C125.61 99.3, 128.91 105.29, 139.04 118.13 M123.42 91.93 C126.82 99.19, 129.99 105.97, 137.08 119.12" stroke="#e03131" stroke-width="1" fill="none"></path></g></g><mask id="mask-5K7dKzeIHh5yMN0qyvhTi"><rect x="0" y="0" fill="#fff" width="1507.6697979013356" height="995.6010148937685"></rect><rect x="1332.486464504424" y="824.0082341876687" fill="#000" width="12.366666793823242" height="25" opacity="1"></rect></mask><g stroke-opacity="0.7" fill-opacity="0.7" transform="translate(1332.486464504424 824.0082341876687) rotate(0 6.204453609138795 12.64343656803021)"><text x="6.183333396911621" y="0" font-family="Virgil, Segoe UI Emoji" font-size="20px" fill="#e03131" text-anchor="middle" style="white-space: pre;" direction="ltr" dominant-baseline="text-before-edge">5</text></g><g stroke-opacity="0.8" fill-opacity="0.8" stroke-linecap="round" transform="translate(779.2765652709321 1022.2914306537086) rotate(0 238.95078299776287 94.6906028368794)"><path d="M32 0 M32 0 C195.15 -0.91, 357.36 -1.98, 445.9 0 M32 0 C132.12 -1.47, 233.63 -0.63, 445.9 0 M445.9 0 C465.88 1.85, 476.78 10.36, 477.9 32 M445.9 0 C468.42 -1.83, 479.32 8.77, 477.9 32 M477.9 32 C476.86 63.04, 479.88 90.78, 477.9 157.38 M477.9 32 C477.13 65.46, 476.33 101.15, 477.9 157.38 M477.9 157.38 C479.21 178.63, 466.24 191.27, 445.9 189.38 M477.9 157.38 C476.46 178.72, 466.27 188.17, 445.9 189.38 M445.9 189.38 C295.32 188.15, 142.01 187.08, 32 189.38 M445.9 189.38 C287.88 187.5, 129.11 187.45, 32 189.38 M32 189.38 C10.62 188.47, -0.16 177.38, 0 157.38 M32 189.38 C9.78 190.85, 0.46 179.6, 0 157.38 M0 157.38 C-2.26 124.55, 0.53 89.59, 0 32 M0 157.38 C1.09 109.09, 1.65 62.66, 0 32 M0 32 C1.94 12.66, 12.03 0.35, 32 0 M0 32 C-0.61 12.82, 9.85 -1.8, 32 0" stroke="#2f9e44" stroke-width="1" fill="none"></path></g><g stroke-opacity="0.8" fill-opacity="0.8" transform="translate(845.3693350362711 1029.917519472786) rotate(0 122.6847058163246 15.887685039745065)"><text x="0" y="0" font-family="Virgil, Segoe UI Emoji" font-size="25.420296063591802px" fill="#2f9e44" text-anchor="start" style="white-space: pre;" direction="ltr" dominant-baseline="text-before-edge">Reputation Proof C</text></g><g stroke-opacity="0.8" fill-opacity="0.8" transform="translate(807.2388909408834 1098.3094811458986) rotate(0 198.64902841165906 51.32626752435499)"><text x="0" y="0" font-family="Virgil, Segoe UI Emoji" font-size="20.53050700974208px" fill="#2f9e44" text-anchor="start" style="white-space: pre;" direction="ltr" dominant-baseline="text-before-edge">token_id = reputation-proof-434n23jhj</text><text x="0" y="25.6631337621776" font-family="Virgil, Segoe UI Emoji" font-size="20.53050700974208px" fill="#2f9e44" text-anchor="start" style="white-space: pre;" direction="ltr" dominant-baseline="text-before-edge">token_amount = 20</text><text x="0" y="51.3262675243552" font-family="Virgil, Segoe UI Emoji" font-size="20.53050700974208px" fill="#2f9e44" text-anchor="start" style="white-space: pre;" direction="ltr" dominant-baseline="text-before-edge">object_pointer = Reputation Proof E</text><text x="0" y="76.9894012865328" font-family="Virgil, Segoe UI Emoji" font-size="20.53050700974208px" fill="#2f9e44" text-anchor="start" style="white-space: pre;" direction="ltr" dominant-baseline="text-before-edge"></text></g><g mask="url(#mask-fEki0xy6Z6GBDqAAo38tY)" stroke-linecap="round"><g stroke-opacity="0.7" fill-opacity="0.7" transform="translate(542.4924115702755 841.5317196247224) rotate(0 110.24684033356107 133.42718546436936)"><path d="M0.97 0.62 C24.04 33.15, 101.08 150.07, 137.67 194.46 C174.25 238.85, 206.93 254.88, 220.48 266.95 M0.02 -0.09 C23.5 32.63, 103.09 151.42, 139.77 195.65 C176.44 239.87, 206.91 253.69, 220.08 265.23" stroke="#e03131" stroke-width="1" fill="none"></path></g><g stroke-opacity="0.7" fill-opacity="0.7" transform="translate(542.4924115702755 841.5317196247224) rotate(0 110.24684033356107 133.42718546436936)"><path d="M192.27 255.03 C196.89 259.87, 206.82 259.3, 221.92 264.11 M191.85 256.17 C198.82 260.2, 208.53 261, 221.01 265.82" stroke="#e03131" stroke-width="1" fill="none"></path></g><g stroke-opacity="0.7" fill-opacity="0.7" transform="translate(542.4924115702755 841.5317196247224) rotate(0 110.24684033356107 133.42718546436936)"><path d="M204.31 238.42 C205.99 247.28, 213.07 250.65, 221.92 264.11 M203.89 239.55 C207.52 248.22, 213.8 253.76, 221.01 265.82" stroke="#e03131" stroke-width="1" fill="none"></path></g></g><mask id="mask-fEki0xy6Z6GBDqAAo38tY"><rect x="0" y="0" fill="#fff" width="862.2765652709321" height="1207.2898922906925"></rect><rect x="667.6447979649138" y="1024.166666666667" fill="#000" width="27.383333206176758" height="25" opacity="1"></rect></mask><g stroke-opacity="0.7" fill-opacity="0.7" transform="translate(667.6447979649138 1024.166666666667) rotate(0 -14.905546061077303 -49.207761577575184)"><text x="13.691666603088379" y="0" font-family="Virgil, Segoe UI Emoji" font-size="20px" fill="#e03131" text-anchor="middle" style="white-space: pre;" direction="ltr" dominant-baseline="text-before-edge">30</text></g><g stroke-opacity="0.6" fill-opacity="0.6" transform="translate(1512.9017022838243 1293.2411559320399) rotate(0 105.14210519692199 29.630676030974428)"><text x="0" y="0" font-family="Virgil, Segoe UI Emoji" font-size="23.70454082477972px" fill="#1e1e1e" text-anchor="start" style="white-space: pre;" direction="ltr" dominant-baseline="text-before-edge">if it has a </text><text x="0" y="29.630676030974648" font-family="Virgil, Segoe UI Emoji" font-size="23.70454082477972px" fill="#1e1e1e" text-anchor="start" style="white-space: pre;" direction="ltr" dominant-baseline="text-before-edge">reputation pointer</text></g><g stroke-opacity="0.6" fill-opacity="0.6" transform="translate(1484.4015031757535 1426.7105231368787) rotate(0 142.71677417932437 28.42550896918101)"><text x="0" y="0" font-family="Virgil, Segoe UI Emoji" font-size="22.7404071753448px" fill="#1e1e1e" text-anchor="start" style="white-space: pre;" direction="ltr" dominant-baseline="text-before-edge">the script doesn't allow</text><text x="0" y="28.425508969181" font-family="Virgil, Segoe UI Emoji" font-size="22.7404071753448px" fill="#1e1e1e" text-anchor="start" style="white-space: pre;" direction="ltr" dominant-baseline="text-before-edge">to send his token amount</text></g><g stroke-opacity="0.6" fill-opacity="0.6" stroke-linecap="round" transform="translate(1421.0954114295773 1226.1943554511881) rotate(0 194.66666666666686 179.15537848605572)"><path d="M27.33 86.04 C27.33 86.04, 27.33 86.04, 27.33 86.04 M27.33 86.04 C27.33 86.04, 27.33 86.04, 27.33 86.04 M24.18 97.1 C32.98 86.5, 40.25 76.13, 63.04 51.03 M23.36 97.24 C38.08 81.12, 51.93 63.24, 64.8 50.28 M17.15 109.4 C31.94 90.42, 46.98 72.29, 77.26 40.58 M16.16 110.99 C29.78 96.35, 41.55 81.3, 77.54 42.02 M13.79 121.78 C40.89 89.81, 72.65 54.18, 90.78 33.79 M11.67 121.09 C31.46 100.76, 48.47 82.11, 88.79 33.43 M5.94 135.44 C34.37 101.25, 60.24 72.28, 98.55 24.74 M6.02 133.4 C44.43 92.64, 80.98 49.09, 100.97 25.5 M8.48 136.54 C41.88 100.71, 72.1 67.04, 109.72 20.83 M8.67 137.61 C39.74 101.07, 70.93 66.87, 111.47 19.91 M7.86 142.49 C36.23 111.55, 66.42 76.86, 119.61 17.01 M8.9 144.56 C49.19 99.12, 86.83 54.53, 118.72 18.15 M8.73 151.59 C53.5 102.85, 96.57 50.77, 126.24 16.54 M8.6 150.74 C38.69 116.42, 69.13 80.34, 124.81 15.26 M6.24 159.78 C42.88 114.74, 80.63 72.61, 130.41 13.71 M6.58 158 C57.09 101.52, 105.63 46.34, 131.57 13.48 M6.55 165.51 C56.21 106.9, 108.88 49.31, 140.75 10.62 M5.31 165.39 C41.71 125.54, 78.41 83.92, 139.84 11.8 M3.94 171.29 C33.28 138.94, 65.68 104.24, 148.38 8.27 M5.16 173.27 C56.84 114.24, 109.08 53.73, 145.99 10.41 M4.64 179.28 C55.88 117.8, 109.55 59.34, 152.42 7.92 M4.65 179.4 C54.98 120.55, 106.66 62.61, 154.49 7.24 M2.48 186.7 C54.04 127.04, 106.72 67.51, 160.61 2.85 M2.87 186.43 C48.5 135.99, 94.06 83.82, 162.33 4.15 M5.36 190.93 C44.18 147, 82.65 99.19, 167.02 3.63 M4.99 192.13 C58.73 130.41, 112.82 67.6, 167.99 3.88 M6.45 197.84 C50.4 143.79, 95.44 90.98, 172.36 4.58 M5.48 197.44 C59.83 135.97, 111.21 75.28, 174.05 3.03 M7.24 202.8 C55.65 145.44, 103.97 91.7, 177.71 3.29 M6.16 201.19 C68.83 130.95, 131.19 58.46, 178.13 3.43 M8 208.51 C71.71 135.33, 133.74 61.54, 183.67 5.04 M6.79 207.26 C71.75 131.22, 137.67 56.16, 183.48 3.15 M7.9 213.42 C51.06 160.62, 94.46 110.67, 190.26 2.99 M8.36 212.16 C81.63 129.29, 153.24 45.21, 189.16 2.91 M7.83 217.35 C82.35 131.82, 156.02 48.18, 193.11 2.32 M8.2 216.3 C68.37 147.96, 128.45 78.34, 194.19 4.04 M10.25 222.6 C66.74 158.9, 123.81 91.92, 201.26 3.2 M9.22 222.55 C59.15 164.62, 109.11 108.16, 200.05 3.37 M9.36 227.41 C66.85 163.35, 125.35 97.08, 206.21 3.49 M9.93 227.42 C89.05 136.56, 166.18 46.89, 205.72 2.63 M10.93 234.48 C59.68 174.41, 111.61 116.93, 211.73 3.69 M9.38 233.41 C56.66 182.57, 102.63 129.99, 210.2 3.29 M10.99 237.87 C64.35 178.41, 117.03 119.18, 215.27 2.6 M11.11 237.85 C88.58 151.7, 164.88 64.52, 216.42 3.08 M12.48 241.14 C67.01 180.88, 122.6 116.29, 220.04 4.98 M13.41 241.6 C61.02 188.77, 106.75 134.92, 220.01 4.59 M15.48 246.97 C96.57 152.94, 177.75 60.34, 224.5 6.37 M15.75 245.25 C91.5 157.78, 168.04 68.35, 224.75 6.2 M18.84 249.38 C88.68 170.18, 156.08 89.94, 228.64 6.72 M17.4 250.34 C65.75 194.18, 112.95 138.64, 228.87 6.55 M19.71 251.98 C81.02 181.95, 142.39 111.51, 233.25 6.07 M19.75 252.94 C78.49 184.23, 137.89 116.17, 234.3 6.47 M22.51 257.96 C66.65 203.85, 112.3 154.76, 237.14 9.13 M21.51 256.86 C80.42 186.72, 141.35 116.66, 238.3 8.74 M24.61 260.48 C79.45 200.25, 133.71 135.65, 241.43 8.12 M23.78 261.61 C93.21 179.41, 166.52 95.66, 242.08 9.69 M25.89 264.99 C84.27 194.03, 144.4 125.8, 247.39 11.24 M25.82 264.94 C85.43 195.97, 144.12 128.64, 247.15 10.68 M27.06 267.93 C86.31 199.83, 146.85 130.56, 252.13 10.29 M27.67 269.4 C98.1 186.63, 169.25 104.98, 251.11 12.07 M29.29 271.3 C94.91 198.07, 159.37 123.59, 254.46 13.91 M29.72 271.86 C101.04 189.24, 174.97 104.64, 254.87 12.1 M32.07 276.16 C87.36 213.22, 140.81 149.43, 260.49 13.77 M32 276.43 C118.73 176.05, 206.16 77.14, 260.31 13.76 M33.01 280.99 C84.95 223.83, 136.68 165.16, 262.92 14.71 M32.61 280.09 C89.98 212.55, 146.78 147.03, 264.22 14.42 M37.31 284.09 C117.4 192.14, 197.2 99.69, 268.44 16.3 M35.99 283.62 C86.16 224.86, 136.51 167.26, 268.64 15.76 M39.38 285.68 C93.19 223.67, 146.54 164.37, 274.51 16.95 M39.7 285.21 C107.29 207.56, 175.05 129.47, 273.32 16.65 M42.57 289.35 C104.69 218.9, 165.17 147, 275.86 18.71 M42.72 288.96 C106.44 215.02, 169.12 142.51, 276.98 18.54 M44.87 292.38 C108.45 217.14, 170.42 145.42, 278.85 21.92 M45.15 292.01 C125.11 198.28, 205.8 105.05, 280.25 20.79 M46.95 293.88 C137.14 191.68, 228.55 88.81, 282.71 22.08 M47.49 294.47 C129.66 201.68, 209.89 108.52, 283.61 23.2 M51.24 297.58 C122.62 214.61, 193.12 130.86, 286.88 24.66 M50.89 296.52 C135.36 199.77, 221.43 100.7, 287.07 24.85 M54.73 299.57 C141.54 196.86, 230.97 94.28, 291.54 27.67 M53.95 299.37 C145.97 191.15, 238.49 84.4, 290.69 26.41 M55.75 303.33 C121.27 228.66, 185.51 155.66, 294.77 28.48 M55.57 303.19 C139.87 204.55, 224.52 106.24, 294.4 28.5 M59.4 304.96 C110.92 245.24, 165.4 186.3, 297.98 29.61 M59.31 305.58 C136.08 216.36, 214.49 127.11, 298.38 30.68 M61.49 308.6 C139.9 219.62, 218.41 130.48, 300.66 32.86 M62.32 308.75 C151.17 202.63, 242.05 98.52, 301.6 32.38 M64.09 311.8 C159.28 203.76, 250.49 96.21, 305.83 34.62 M64.68 310.47 C114.28 256.29, 163.26 199.5, 304.9 35.1 M67.07 315.34 C119.01 255.88, 168.78 197.3, 309.09 36.27 M67.24 314.53 C149.53 217.71, 233.42 120.88, 308.7 37.09 M71.14 316.11 C129.92 249.67, 187.66 181.74, 311.54 39.52 M70.97 316.64 C129.9 249.62, 187.11 183.94, 312.34 38.09 M74.35 319.94 C138.06 245.14, 203.39 170.21, 317.04 40.59 M73.42 319.17 C128.29 257.75, 183.69 194.26, 316.28 40.19 M78.16 321.3 C140.32 250.92, 202.94 179.02, 320.19 40.96 M77.4 321.34 C126.56 265.77, 174.45 210.66, 320.14 41.89 M80.3 324.51 C139.36 256.66, 195.41 190.59, 322.77 44.74 M81.38 323.65 C135.54 258.92, 191.53 194.6, 321.72 45.94 M83.86 325.79 C173.8 218.06, 266.81 113.75, 326.29 49.4 M83.63 325.35 C133.84 269.27, 183.29 212.14, 325.81 48.11 M87.3 326.66 C148.08 259.19, 209.22 188.83, 329.02 50.77 M87.16 327.32 C143.96 261.54, 201.69 194.26, 328.75 50.32 M90.79 329.45 C158.97 251.48, 225.97 174.04, 332.07 52.66 M91.23 329.36 C168.65 238.92, 247.34 148.48, 330.81 53.4 M94.27 332.63 C154.3 265.55, 212.5 196.18, 333.54 56.75 M94.39 331.06 C184.73 228.61, 273.89 126.54, 334.13 56.24 M99.67 332.36 C173.55 246.43, 250.06 161.26, 336.48 60.43 M97.98 332.78 C193.57 225.4, 289 116.44, 336.99 59.26 M101.28 335.94 C184.16 240.15, 265.77 146.41, 340.42 62.17 M101.61 335.86 C150.61 278.61, 199.2 222.47, 339.06 61.59 M106.23 337.56 C185.62 247.54, 264.35 156.58, 341.11 65.13 M106.05 337.76 C198.29 230.44, 289.93 124.66, 342.56 65.28 M109.75 339.28 C175.75 263.31, 243.59 186.62, 345.55 68.26 M109.9 338.53 C197.64 236.96, 286.45 135.46, 344.59 68.22 M113.17 341.81 C178.35 266.59, 246.78 189.74, 348.23 71.67 M113.81 341.08 C170.62 276.2, 226.06 211.54, 347.52 70.1 M116.08 343.59 C203.69 242.52, 290.48 141.29, 351.21 75.21 M116.48 343.23 C200.41 246.21, 285.55 149.34, 349.99 74.17 M119.4 346.3 C168.4 287.76, 217.32 230.82, 353.78 77.1 M120.21 345.04 C173.26 283.36, 227.29 220, 353.11 76.25 M125 346.74 C203.25 256.84, 282.38 164.78, 356.57 79.34 M124.33 346.43 C193.93 266.25, 264.31 184.56, 357.01 79.69 M129.11 347.15 C187.07 277.04, 246.3 207.88, 358.18 84.56 M128.74 347.9 C174.6 291.94, 222.98 238.25, 358.69 83.81 M131.63 349.58 C202.33 270.56, 269.73 193.22, 359.44 87.11 M133.18 349.21 C223.76 245.2, 312.72 142.93, 360.26 87.26 M136.08 349.6 C199.01 277.91, 261.7 207.67, 363.2 91.24 M136.97 350.34 C215.81 258.07, 296.04 165.84, 362.26 89.86 M142.13 350.3 C221.46 259.19, 304.1 165.54, 364.25 93.19 M142.11 350.37 C201.24 280.56, 262.07 211.1, 364.07 93.72 M145.9 352.76 C232.06 255.98, 315.38 157.64, 367.44 98.38 M145.77 351.69 C196.89 293.82, 246.79 237.27, 366.35 97.23 M151.01 354.2 C206.59 291.72, 259.45 228.02, 367.62 101.02 M150.1 353.59 C201.7 293.65, 253.88 233.46, 368.21 101.86 M155.71 354.25 C204.34 297, 252.99 239.7, 371.44 105.69 M154.65 353.66 C219.32 277.67, 286.11 201.74, 371.59 104.98 M158.59 355.92 C213.45 292.24, 267.35 230.45, 374.2 109.38 M159.52 354.9 C208.75 297.25, 259.1 239.42, 373.08 108.06 M164.57 355.67 C235.68 274.21, 306.56 190.38, 375.85 113.63 M163.07 356.36 C218.77 293.29, 274.96 229.99, 374.46 113.32 M168.8 358.06 C228.49 291.45, 287.46 221.01, 377.88 115.03 M167.96 357.45 C227.17 289.61, 284.85 223.02, 377.07 116.07 M171.47 359.37 C243.2 278.74, 312.2 197.8, 379.27 119.82 M172.53 357.39 C229.68 288.64, 289.19 220.02, 378.93 119.99 M176.49 359.03 C225.01 303.52, 274.18 245.26, 381.42 125.65 M177.72 357.75 C221.98 308.56, 266.38 258.74, 381.28 125.09 M183.26 357.74 C251.55 278.14, 319.15 199.3, 382.54 128.9 M183.1 358.25 C251.5 279.57, 320.09 201.08, 381.45 128.8 M190.06 358.68 C232.49 307.5, 278.39 256.2, 383.52 134.23 M189.07 357.01 C258.08 276.8, 326.55 198.56, 383.28 134.66 M192.79 358.16 C268.13 270.37, 345.07 183.08, 383.52 137.6 M194.29 358.08 C260.74 284.5, 325.59 209.4, 383.94 138.92 M199.47 356.02 C259.88 287.98, 323.2 213.79, 384.08 144.19 M199.59 357.68 C249.2 301.66, 296.68 245.85, 385.43 144.61 M205.87 358.64 C241.97 315.87, 276.42 275.07, 386.05 149.2 M204.58 357.78 C266.75 284.67, 328.76 212.95, 385.46 149.15 M209.73 356.01 C255.27 305.13, 299.31 251.25, 386.39 153.97 M210.19 358.1 C269.59 285.04, 331.62 214.06, 386.65 155.23 M216.63 357.66 C279.58 284.89, 341.89 210.38, 387.07 159.47 M214.96 357.11 C278.46 283.73, 342.4 208.84, 387.02 158.63 M220.76 357.81 C269.14 301.83, 316.37 248.8, 388.99 164.23 M220.97 356.89 C268.74 299.65, 318.12 244.13, 389.39 164.15 M226.42 355.96 C263.25 312.3, 303.36 270.52, 388.44 169.33 M227.01 356.29 C291.4 282.02, 353.9 209, 390.11 169.31 M229.99 357.61 C274.58 305.09, 321.55 254.21, 389.96 173.87 M231.16 358.51 C263.85 320.29, 296.69 283.3, 390.21 174.83 M239.93 355.32 C296.36 291.11, 352.17 227.08, 387.88 181.92 M237.98 356.19 C287.67 298.96, 337.45 242.23, 388.53 182.6 M245.61 353.09 C296.67 295.65, 348.44 235.97, 388.68 188.08 M245.75 353.29 C282.89 310.78, 321.98 267.78, 387.55 188.64 M253.83 353.46 C295.17 303.67, 337.23 255.9, 388.05 195.85 M252.65 351.32 C286.38 312.26, 320.91 271.23, 387.4 195.61 M261.02 350.06 C307.73 295.1, 357.49 237.91, 386.23 203.77 M259.53 349.82 C296.87 304.56, 336.64 261.19, 385.77 203.07 M264.77 348.28 C297.49 309.93, 327.66 278.98, 385.45 209.56 M267.13 346.42 C291.33 320.55, 314.78 291.49, 386.05 211.32 M275.14 343.98 C301.47 312.72, 326.6 284.92, 382.92 215.78 M273.56 343.73 C317.5 296.01, 360.78 244.6, 384.52 217.38 M281.71 340.89 C310.15 308.39, 338.72 274.09, 383.12 223.24 M282.12 341.17 C317.78 299.31, 355.18 256.81, 382.88 225.64 M292.95 332.74 C326.26 299.23, 354.96 262.96, 377.82 237.71 M292.66 335.62 C316.09 308.05, 339.3 281.43, 378.35 237.36 M304.41 326.93 C318.36 308.12, 333.88 293.5, 372.6 251.35 M305.77 328.16 C321.26 307.58, 337.9 287.16, 372.18 249.14 M315.15 320.32 C332.68 304.65, 343.32 289.29, 365.59 264 M317.29 320.72 C334.92 300.39, 351.94 281.32, 366.5 263.11" stroke="#b2f2bb" stroke-width="0.5" fill="none"></path><path d="M161.37 3.56 C177.94 -1.78, 199.27 0.16, 217.52 1.96 C235.76 3.76, 254.05 7.83, 270.86 14.37 C287.67 20.91, 304.43 30.59, 318.38 41.19 C332.32 51.8, 344.16 64.26, 354.52 78 C364.89 91.75, 374.67 107.58, 380.58 123.65 C386.49 139.73, 389.48 157.66, 389.97 174.45 C390.45 191.25, 388.07 208.24, 383.48 224.42 C378.89 240.59, 372.07 256.93, 362.42 271.52 C352.77 286.11, 339.29 300.49, 325.59 311.98 C311.89 323.48, 296.35 333.09, 280.22 340.5 C264.09 347.91, 246.87 353.54, 228.83 356.46 C210.79 359.38, 190.29 360.06, 171.97 358.03 C153.65 356, 135.51 350.77, 118.92 344.26 C102.33 337.75, 86.68 329.57, 72.43 318.97 C58.17 308.36, 43.86 294.77, 33.39 280.63 C22.92 266.5, 15.08 250.17, 9.62 234.14 C4.16 218.12, 1.14 201.12, 0.64 184.5 C0.14 167.88, 2.17 150.84, 6.62 134.43 C11.08 118.01, 17.9 100.37, 27.35 86.02 C36.81 71.66, 49.73 59.49, 63.35 48.31 C76.96 37.12, 90.64 26.94, 109.06 18.92 C127.48 10.91, 161.16 2.8, 173.85 0.21 C186.54 -2.39, 185.09 0.33, 185.2 3.35" stroke="#1e1e1e" stroke-width="1.5" fill="none" stroke-dasharray="8 9"></path></g><g stroke-linecap="round"><g stroke-opacity="0.6" fill-opacity="0.6" transform="translate(1586.121842913286 1370.4913353132006) rotate(0 0.8216535516985459 14.709650288879857)"><path d="M0 0 C0.1 -0.17, 0.32 -6.45, 0.59 -1.01 C0.86 4.43, 1.47 27.03, 1.64 32.64 M0 0 C0.1 -0.17, 0.32 -6.45, 0.59 -1.01 C0.86 4.43, 1.47 27.03, 1.64 32.64" stroke="#1e1e1e" stroke-width="1" fill="none"></path></g><g stroke-opacity="0.6" fill-opacity="0.6" transform="translate(1586.121842913286 1370.4913353132006) rotate(0 0.8216535516985459 14.709650288879857)"><path d="M-4.57 17 C-2.77 21.54, -0.96 26.09, 1.64 32.64 M-4.57 17 C-2.14 23.12, 0.29 29.24, 1.64 32.64" stroke="#1e1e1e" stroke-width="1" fill="none"></path></g><g stroke-opacity="0.6" fill-opacity="0.6" transform="translate(1586.121842913286 1370.4913353132006) rotate(0 0.8216535516985459 14.709650288879857)"><path d="M6.94 16.66 C5.4 21.31, 3.86 25.95, 1.64 32.64 M6.94 16.66 C4.87 22.92, 2.79 29.17, 1.64 32.64" stroke="#1e1e1e" stroke-width="1" fill="none"></path></g></g><mask></mask><g stroke-linecap="round"><g stroke-opacity="0.6" fill-opacity="0.6" transform="translate(1437.0963977019778 1294.5580417064948) rotate(0 -86.38512516906155 -67.95654965421909)"><path d="M-0.41 1.14 C-28.99 -21.85, -143.99 -114.17, -172.36 -137.05" stroke="#1e1e1e" stroke-width="1.5" fill="none" stroke-dasharray="8 9"></path></g><g stroke-opacity="0.6" fill-opacity="0.6" transform="translate(1437.0963977019778 1294.5580417064948) rotate(0 -86.38512516906155 -67.95654965421909)"><path d="M-142.06 -128.52 C-150.14 -127.87, -155.04 -130.21, -171.06 -136.39" stroke="#1e1e1e" stroke-width="1.5" fill="none"></path></g><g stroke-opacity="0.6" fill-opacity="0.6" transform="translate(1437.0963977019778 1294.5580417064948) rotate(0 -86.38512516906155 -67.95654965421909)"><path d="M-154.93 -112.53 C-160.21 -115.45, -162.2 -121.41, -171.06 -136.39" stroke="#1e1e1e" stroke-width="1.5" fill="none"></path></g></g><mask></mask><g stroke-linecap="round"><g stroke-opacity="0.6" fill-opacity="0.6" transform="translate(1719.1304295215537 1229.4003267505286) rotate(0 -1.5579223839142742 -96.18588468871667)"><path d="M-0.69 0.18 C-1.02 -32.1, -2.12 -160.38, -2.43 -192.56" stroke="#1e1e1e" stroke-width="1.5" fill="none" stroke-dasharray="8 9"></path></g><g stroke-opacity="0.6" fill-opacity="0.6" transform="translate(1719.1304295215537 1229.4003267505286) rotate(0 -1.5579223839142742 -96.18588468871667)"><path d="M8.39 -162.67 C6.86 -170.34, 3.54 -178.78, -1.06 -190.8" stroke="#1e1e1e" stroke-width="1.5" fill="none"></path></g><g stroke-opacity="0.6" fill-opacity="0.6" transform="translate(1719.1304295215537 1229.4003267505286) rotate(0 -1.5579223839142742 -96.18588468871667)"><path d="M-12.13 -162.48 C-8.22 -170.09, -6.09 -178.58, -1.06 -190.8" stroke="#1e1e1e" stroke-width="1.5" fill="none"></path></g></g><mask></mask><g stroke-opacity="0.8" fill-opacity="0.8" stroke-linecap="round" transform="translate(132.50313123466879 1364.5) rotate(0 224.74093264248756 115.66666666666697)"><path d="M32 0 M32 0 C148.35 2.26, 263.48 2.64, 417.48 0 M32 0 C115.56 0.06, 198.29 -0.41, 417.48 0 M417.48 0 C438.79 -1.02, 447.55 11.98, 449.48 32 M417.48 0 C440.9 -0.75, 450.09 11.94, 449.48 32 M449.48 32 C448.92 68.46, 450.73 105.64, 449.48 199.33 M449.48 32 C449.16 97.63, 449.32 163.85, 449.48 199.33 M449.48 199.33 C449.33 220.04, 437.08 230.98, 417.48 231.33 M449.48 199.33 C449.23 218.41, 440.12 230.58, 417.48 231.33 M417.48 231.33 C294.27 232.4, 168.33 233.51, 32 231.33 M417.48 231.33 C307 230.1, 195.19 231.07, 32 231.33 M32 231.33 C11.76 230.31, 0.87 219.69, 0 199.33 M32 231.33 C9.71 233.28, 1.16 222.61, 0 199.33 M0 199.33 C2.79 155.25, 3.12 106.24, 0 32 M0 199.33 C-0.18 140.6, -1.97 84.35, 0 32 M0 32 C0.02 9.18, 10.69 1.03, 32 0 M0 32 C1.79 11.98, 9.33 0.66, 32 0" stroke="#e03131" stroke-width="1" fill="none"></path></g><g stroke-opacity="0.8" fill-opacity="0.8" transform="translate(203.2216113728382 1387.2737478411054) rotate(0 116.0562139586878 14.98272884283233)"><text x="0" y="0" font-family="Virgil, Segoe UI Emoji" font-size="23.972366148532018px" fill="#e03131" text-anchor="start" style="white-space: pre;" direction="ltr" dominant-baseline="text-before-edge">Reputation Proof E</text></g><g stroke-opacity="0.8" fill-opacity="0.8" transform="translate(179.24924522430626 1458.9618405264773) rotate(0 171.80195130132483 36.30205786313445)"><text x="0" y="0" font-family="Virgil, Segoe UI Emoji" font-size="19.36109752700493px" fill="#e03131" text-anchor="start" style="white-space: pre;" direction="ltr" dominant-baseline="text-before-edge">token_id = reputation-proof-98239</text><text x="0" y="24.201371908756162" font-family="Virgil, Segoe UI Emoji" font-size="19.36109752700493px" fill="#e03131" text-anchor="start" style="white-space: pre;" direction="ltr" dominant-baseline="text-before-edge">initial_token_amount = 100</text><text x="0" y="48.402743817512324" font-family="Virgil, Segoe UI Emoji" font-size="19.36109752700493px" fill="#e03131" text-anchor="start" style="white-space: pre;" direction="ltr" dominant-baseline="text-before-edge">    - unspend_amount = 0 / 100</text></g><g mask="url(#mask-dRo8UU3sbRVlFvdP3892E)" stroke-linecap="round"><g transform="translate(804.1545531448884 1219.509371337047) rotate(0 -127.51605663064572 63.33676944362605)"><path d="M-0.04 0.17 C-18.05 9.97, -65.33 38.77, -107.82 59.82 C-150.31 80.88, -230.56 115.43, -254.99 126.5" stroke="#2f9e44" stroke-width="1.5" fill="none" stroke-dasharray="1.5 7"></path></g><g transform="translate(804.1545531448884 1219.509371337047) rotate(0 -127.51605663064572 63.33676944362605)"><path d="M-233.09 105.69 C-241.13 111.89, -246.26 119.49, -254.84 128.2" stroke="#2f9e44" stroke-width="1.5" fill="none" stroke-dasharray="1.5 5"></path></g><g transform="translate(804.1545531448884 1219.509371337047) rotate(0 -127.51605663064572 63.33676944362605)"><path d="M-224.78 124.45 C-235.6 124.73, -243.36 126.4, -254.84 128.2" stroke="#2f9e44" stroke-width="1.5" fill="none" stroke-dasharray="1.5 5"></path></g></g><mask id="mask-dRo8UU3sbRVlFvdP3892E"><rect x="0" y="0" fill="#fff" width="1158.9230654085532" height="1445.666666666667"></rect><rect x="589.9947973927094" y="1255.000000000001" fill="#000" width="212.68333435058594" height="50" opacity="1"></rect></mask><g stroke-opacity="0.7" fill-opacity="0.7" transform="translate(589.9947973927096 1255.000000000001) rotate(0 86.64369912153313 27.846140780672158)"><text x="106.34166717529297" y="0" font-family="Virgil, Segoe UI Emoji" font-size="20px" fill="#2f9e44" text-anchor="middle" style="white-space: pre;" direction="ltr" dominant-baseline="text-before-edge">assign reputation to </text><text x="106.34166717529297" y="25" font-family="Virgil, Segoe UI Emoji" font-size="20px" fill="#2f9e44" text-anchor="middle" style="white-space: pre;" direction="ltr" dominant-baseline="text-before-edge">the proof E</text></g><g mask="url(#mask-4bjRd5DRF_akevI1aiuDZ)" stroke-linecap="round"><g transform="translate(1590.1144550132867 801.666666666667) rotate(0 -57.32808527705663 -122.24185171150202)"><path d="M0.4 -0.18 C-18.88 -40.98, -95.53 -203.63, -115.06 -244.31" stroke="#2f9e44" stroke-width="1.5" fill="none" stroke-dasharray="1.5 7"></path></g><g transform="translate(1590.1144550132867 801.666666666667) rotate(0 -57.32808527705663 -122.24185171150202)"><path d="M-93.99 -222.31 C-102.42 -232.53, -109.84 -238.25, -115.32 -244.9" stroke="#2f9e44" stroke-width="1.5" fill="none" stroke-dasharray="1.5 5"></path></g><g transform="translate(1590.1144550132867 801.666666666667) rotate(0 -57.32808527705663 -122.24185171150202)"><path d="M-112.53 -213.5 C-114.41 -226.91, -115.26 -235.75, -115.32 -244.9" stroke="#2f9e44" stroke-width="1.5" fill="none" stroke-dasharray="1.5 5"></path></g></g><mask id="mask-4bjRd5DRF_akevI1aiuDZ"><rect x="0" y="0" fill="#fff" width="1805.738394756579" height="1145.3369009464595"></rect><rect x="1426.094149265176" y="654.8315495267707" fill="#000" width="212.4166717529297" height="50" opacity="1"></rect></mask><g stroke-opacity="0.7" fill-opacity="0.7" transform="translate(1426.0941492651757 654.8315495267707) rotate(0 106.69222047105438 24.59326542839426)"><text x="106.20833587646484" y="0" font-family="Virgil, Segoe UI Emoji" font-size="20px" fill="#2f9e44" text-anchor="middle" style="white-space: pre;" direction="ltr" dominant-baseline="text-before-edge">assign reputation the</text><text x="106.20833587646484" y="25" font-family="Virgil, Segoe UI Emoji" font-size="20px" fill="#2f9e44" text-anchor="middle" style="white-space: pre;" direction="ltr" dominant-baseline="text-before-edge">a git repository</text></g><g stroke-linecap="round" transform="translate(1314.6697979013356 333.66666666666697) rotate(0 118.5 117)"><path d="M148.75 29.5 M148.75 29.5 C164.69 44.26, 179.59 61.22, 207.25 88.5 M148.75 29.5 C163.03 43.23, 176.41 56.27, 207.25 88.5 M207.25 88.5 C236.82 119.37, 237.84 118.65, 207.25 147.5 M207.25 88.5 C234.77 117.11, 235.86 120.24, 207.25 147.5 M207.25 147.5 C190.6 166.84, 174.1 179.96, 148.75 204.5 M207.25 147.5 C186.52 167.41, 166.73 186.64, 148.75 204.5 M148.75 204.5 C120.41 234.21, 120.19 233.72, 89.25 204.5 M148.75 204.5 C119.78 233.85, 119.94 234.34, 89.25 204.5 M89.25 204.5 C64.18 182.2, 41.98 157.4, 29.75 147.5 M89.25 204.5 C69.03 184.14, 47.9 163.71, 29.75 147.5 M29.75 147.5 C-1.39 116.94, -1.14 116.81, 29.75 88.5 M29.75 147.5 C-1.93 118.9, 0.23 118.42, 29.75 88.5 M29.75 88.5 C54.17 68.23, 74.84 43.45, 89.25 29.5 M29.75 88.5 C44.69 72.84, 60.65 59.73, 89.25 29.5 M89.25 29.5 C120.27 1.72, 118.56 0.97, 148.75 29.5 M89.25 29.5 C116.85 0.26, 118.28 0.03, 148.75 29.5" stroke="#1e1e1e" stroke-width="1" fill="none"></path></g><g transform="translate(1359.6697979013356 435.66666666666697) rotate(0 68.78333282470703 12.5)"><text x="0" y="0" font-family="Virgil, Segoe UI Emoji" font-size="20px" fill="#1e1e1e" text-anchor="start" style="white-space: pre;" direction="ltr" dominant-baseline="text-before-edge">Git repository</text></g><g transform="translate(263.0031312346689 10) rotate(0 189.36666870117193 35)"><text x="0" y="0" font-family="Virgil, Segoe UI Emoji" font-size="28px" fill="#1e1e1e" text-anchor="start" style="white-space: pre;" direction="ltr" dominant-baseline="text-before-edge">Reputation System Example</text><text x="0" y="35" font-family="Virgil, Segoe UI Emoji" font-size="28px" fill="#1e1e1e" text-anchor="start" style="white-space: pre;" direction="ltr" dominant-baseline="text-before-edge"></text></g><g stroke-linecap="round"><g transform="translate(239.66979790133553 60) rotate(0 560.8129527784387 3.277249470452716)"><path d="M0.46 -2.32 C188 -1.02, 937.11 4.73, 1124.36 6.33 M-2.73 2.6 C184.6 4.32, 935.15 7.67, 1122.67 8.87" stroke="#f08c00" stroke-width="2" fill="none"></path></g></g><mask></mask><g stroke-opacity="0.6" fill-opacity="0.6" transform="translate(102.31997010646535 1114.3691874046053) rotate(0 125.75833129882812 14.212754484590278)"><text x="0" y="0" font-family="Virgil, Segoe UI Emoji" font-size="22.7404071753448px" fill="#1e1e1e" text-anchor="start" style="white-space: pre;" direction="ltr" dominant-baseline="text-before-edge">Reputation tree roots</text></g><g stroke-linecap="round"><g stroke-opacity="0.6" fill-opacity="0.6" transform="translate(63.06775971617117 1175.059006187099) rotate(0 -2.5562740835887325 120.654012574033)"><path d="M0.52 -0.35 C-8.04 14.88, -60.16 50.37, -52.25 90.71 C-44.35 131.04, 31.12 216.73, 47.96 241.66" stroke="#1e1e1e" stroke-width="1.5" fill="none" stroke-dasharray="8 9"></path></g><g stroke-opacity="0.6" fill-opacity="0.6" transform="translate(63.06775971617117 1175.059006187099) rotate(0 -2.5562740835887325 120.654012574033)"><path d="M22.07 227.43 C29.62 228.01, 35.21 233.07, 46.76 241.44" stroke="#1e1e1e" stroke-width="1.5" fill="none"></path></g><g stroke-opacity="0.6" fill-opacity="0.6" transform="translate(63.06775971617117 1175.059006187099) rotate(0 -2.5562740835887325 120.654012574033)"><path d="M38.36 214.95 C42.11 218.44, 43.99 226.36, 46.76 241.44" stroke="#1e1e1e" stroke-width="1.5" fill="none"></path></g></g><mask></mask><g stroke-linecap="round"><g stroke-opacity="0.6" fill-opacity="0.6" transform="translate(86.69779889700453 1064.2220918288058) rotate(0 -27.439401088912973 -108.62810659415481)"><path d="M1.14 0.77 C-8.28 -23.1, -55.56 -107.1, -56.02 -143.57 C-56.48 -180.03, -10.62 -205.88, -1.6 -218.02" stroke="#1e1e1e" stroke-width="1.5" fill="none" stroke-dasharray="8 9"></path></g><g stroke-opacity="0.6" fill-opacity="0.6" transform="translate(86.69779889700453 1064.2220918288058) rotate(0 -27.439401088912973 -108.62810659415481)"><path d="M-14.13 -192.48 C-9.49 -200.39, -7.04 -210.04, -0.13 -219.47" stroke="#1e1e1e" stroke-width="1.5" fill="none"></path></g><g stroke-opacity="0.6" fill-opacity="0.6" transform="translate(86.69779889700453 1064.2220918288058) rotate(0 -27.439401088912973 -108.62810659415481)"><path d="M-28.02 -207.59 C-18.65 -210.43, -11.43 -214.9, -0.13 -219.47" stroke="#1e1e1e" stroke-width="1.5" fill="none"></path></g></g><mask></mask><g stroke-opacity="0.8" fill-opacity="0.8" stroke-linecap="round" transform="translate(48.0031312346689 1066.666666666667) rotate(0 189.16666666666669 62.5)"><path d="M303.21 11.35 C320.74 14.96, 335.37 22.92, 347.08 28.75 C358.8 34.58, 368.34 39.86, 373.5 46.34 C378.67 52.83, 379.98 61.2, 378.07 67.65 C376.17 74.1, 369.69 79.3, 362.06 85.06 C354.43 90.82, 345.82 97, 332.31 102.21 C318.8 107.42, 298.86 112.59, 280.98 116.3 C263.1 120.02, 244.93 122.85, 225.01 124.48 C205.09 126.11, 181.85 127.35, 161.46 126.08 C141.06 124.8, 120.99 120.01, 102.63 116.83 C84.27 113.66, 65.76 111.91, 51.29 107.02 C36.82 102.13, 24.11 94.06, 15.79 87.5 C7.48 80.95, 3.08 74.03, 1.4 67.7 C-0.28 61.37, 0.88 55.93, 5.72 49.53 C10.55 43.13, 19.84 34.95, 30.41 29.29 C40.97 23.62, 53.58 19.92, 69.11 15.54 C84.63 11.16, 104.41 5.85, 123.55 3.02 C142.7 0.19, 163.64 -1.46, 183.98 -1.44 C204.33 -1.42, 215.47 -4.1, 245.63 3.14 C275.78 10.37, 344.03 30.1, 364.9 41.95 C385.77 53.8, 373.27 74.33, 370.84 74.23" stroke="#1e1e1e" stroke-width="2.5" fill="none" stroke-dasharray="1.5 8"></path></g><g stroke-linecap="round"><g stroke-opacity="0.6" fill-opacity="0.6" transform="translate(605.559342302453 541.8390130877206) rotate(0 -81.22261277374452 398.13659678061504)"><path d="M0.69 0.31 C3.49 61.11, 47.72 231.48, 15.97 364.09 C-15.79 496.7, -155.68 723.97, -189.83 795.97" stroke="#1e1e1e" stroke-width="1.5" fill="none" stroke-dasharray="8 9"></path></g><g stroke-opacity="0.6" fill-opacity="0.6" transform="translate(605.559342302453 541.8390130877206) rotate(0 -81.22261277374452 398.13659678061504)"><path d="M-185.07 766.59 C-185.19 772.58, -188.18 780.83, -190.17 795.97" stroke="#1e1e1e" stroke-width="1.5" fill="none"></path></g><g stroke-opacity="0.6" fill-opacity="0.6" transform="translate(605.559342302453 541.8390130877206) rotate(0 -81.22261277374452 398.13659678061504)"><path d="M-166.97 776.27 C-171.19 780.14, -178.33 786.18, -190.17 795.97" stroke="#1e1e1e" stroke-width="1.5" fill="none"></path></g></g><mask></mask></svg>